# xmcd
#
# Track frame offsets: 
#        182
#        11490
#        22237
#        44740
#        61187
#
# Disc length: 936 seconds
#
# Revision: 1
# Processed by: cddbd v1.5.2PL0 Copyright (c) Steve Scherf et al.
# Submitted via: ExactAudioCopy v1.3
#
DISCID=3e03a605
DTITLE=Johnny Cash - Thirteen (single)
DYEAR=1995
DGENRE=Country
TTITLE0=Thirteen
TTITLE1=Go On Blues
TTITLE2=The Man Who Couldn't Cry
TTITLE3=Thirteen (Live)
TTITLE4=Old Chunk Of Coal
EXTD=YEAR: 1995 ID3G:   2
EXTT0=
EXTT1=
EXTT2=
EXTT3=
EXTT4=
PLAYORDER=
